<svg width="20" height="20" viewBox="0 0 20 20" fill="none" xmlns="http://www.w3.org/2000/svg">
<rect width="20" height="19.7949" fill="url(#paint0_radial_29_597)"/>
<path d="M10 5.84308C11.3253 5.84308 11.506 5.84308 12.0482 5.84308C12.5301 5.84308 12.7711 5.96232 12.9518 6.02195C13.1928 6.14119 13.3735 6.20082 13.5542 6.37969C13.7349 6.55855 13.8554 6.73742 13.9157 6.97592C13.9759 7.15479 14.0361 7.39328 14.0964 7.87026C14.0964 8.40687 14.0964 8.52612 14.0964 9.89745C14.0964 11.2688 14.0964 11.388 14.0964 11.9246C14.0964 12.4016 13.9759 12.6401 13.9157 12.819C13.7952 13.0575 13.7349 13.2363 13.5542 13.4152C13.3735 13.5941 13.1928 13.7133 12.9518 13.773C12.7711 13.8326 12.5301 13.8922 12.0482 13.9518C11.506 13.9518 11.3855 13.9518 10 13.9518C8.61446 13.9518 8.49398 13.9518 7.95181 13.9518C7.46988 13.9518 7.22892 13.8326 7.04819 13.773C6.80723 13.6537 6.62651 13.5941 6.44578 13.4152C6.26506 13.2363 6.14458 13.0575 6.08434 12.819C6.0241 12.6401 5.96386 12.4016 5.90361 11.9246C5.90361 11.388 5.90361 11.2688 5.90361 9.89745C5.90361 8.52612 5.90361 8.40687 5.90361 7.87026C5.90361 7.39328 6.0241 7.15479 6.08434 6.97592C6.20482 6.73742 6.26506 6.55855 6.44578 6.37969C6.62651 6.20082 6.80723 6.08157 7.04819 6.02195C7.22892 5.96232 7.46988 5.9027 7.95181 5.84308C8.49398 5.84308 8.6747 5.84308 10 5.84308ZM10 4.94873C8.61446 4.94873 8.49398 4.94873 7.95181 4.94873C7.40964 4.94873 7.04819 5.06798 6.74699 5.18722C6.44578 5.30647 6.14458 5.48534 5.84337 5.78345C5.54217 6.08157 5.42169 6.32006 5.24096 6.6778C5.12048 6.97592 5.06024 7.33366 5 7.87026C5 8.40687 5 8.58574 5 9.89745C5 11.2688 5 11.388 5 11.9246C5 12.4612 5.12048 12.819 5.24096 13.1171C5.36145 13.4152 5.54217 13.7133 5.84337 14.0114C6.14458 14.3096 6.38554 14.4288 6.74699 14.6077C7.04819 14.7269 7.40964 14.7865 7.95181 14.8462C8.49398 14.8462 8.6747 14.8462 10 14.8462C11.3253 14.8462 11.506 14.8462 12.0482 14.8462C12.5904 14.8462 12.9518 14.7269 13.253 14.6077C13.5542 14.4884 13.8554 14.3096 14.1566 14.0114C14.4578 13.7133 14.5783 13.4748 14.759 13.1171C14.8795 12.819 14.9398 12.4612 15 11.9246C15 11.388 15 11.2092 15 9.89745C15 8.58574 15 8.40687 15 7.87026C15 7.33366 14.8795 6.97592 14.759 6.6778C14.6386 6.37969 14.4578 6.08157 14.1566 5.78345C13.8554 5.48534 13.6145 5.36609 13.253 5.18722C12.9518 5.06798 12.5904 5.00835 12.0482 4.94873C11.506 4.94873 11.3855 4.94873 10 4.94873Z" fill="white"/>
<path d="M10 7.33366C8.55422 7.33366 7.40964 8.46649 7.40964 9.89745C7.40964 11.3284 8.55422 12.4612 10 12.4612C11.4458 12.4612 12.5904 11.3284 12.5904 9.89745C12.5904 8.46649 11.4458 7.33366 10 7.33366ZM10 11.5669C9.09639 11.5669 8.31325 10.8514 8.31325 9.89745C8.31325 9.0031 9.03615 8.228 10 8.228C10.9036 8.228 11.6867 8.94348 11.6867 9.89745C11.6867 10.7918 10.9036 11.5669 10 11.5669Z" fill="white"/>
<path d="M12.6506 7.87026C12.9833 7.87026 13.253 7.60332 13.253 7.27403C13.253 6.94474 12.9833 6.6778 12.6506 6.6778C12.3179 6.6778 12.0482 6.94474 12.0482 7.27403C12.0482 7.60332 12.3179 7.87026 12.6506 7.87026Z" fill="white"/>
<defs>
<radialGradient id="paint0_radial_29_597" cx="0" cy="0" r="1" gradientUnits="userSpaceOnUse" gradientTransform="translate(20.4023 0.402084) scale(46.1859 45.7122)">
<stop stop-color="#F9ED32"/>
<stop offset="0.36" stop-color="#EE2A7B"/>
<stop offset="0.44" stop-color="#D22A8A"/>
<stop offset="0.6" stop-color="#8B2AB2"/>
<stop offset="0.83" stop-color="#1B2AF0"/>
<stop offset="0.88" stop-color="#002AFF"/>
</radialGradient>
</defs>
</svg>
