<svg width="28" height="19" viewBox="0 0 28 19" fill="none" xmlns="http://www.w3.org/2000/svg">
<g clip-path="url(#clip0_29_109)">
<path d="M17.6941 3.3103H10.3079V15.6876H17.6941V3.3103Z" fill="#FF5F00"/>
<path d="M11.0688 9.50003C11.0678 8.30821 11.3312 7.13178 11.8388 6.05978C12.3465 4.98779 13.0852 4.04832 13.999 3.31246C12.8672 2.3999 11.508 1.83243 10.0767 1.67491C8.64549 1.51739 7.19991 1.77618 5.90523 2.4217C4.61055 3.06721 3.51899 4.07342 2.75532 5.32531C1.99165 6.5772 1.58667 8.02427 1.58667 9.50113C1.58667 10.978 1.99165 12.4251 2.75532 13.6769C3.51899 14.9288 4.61055 15.935 5.90523 16.5806C7.19991 17.2261 8.64549 17.4849 10.0767 17.3273C11.508 17.1698 12.8672 16.6024 13.999 15.6898C13.0849 14.9537 12.346 14.0139 11.8384 12.9415C11.3307 11.8691 11.0675 10.6922 11.0688 9.50003Z" fill="#EB001B"/>
<path d="M25.6793 14.3779V14.1243H25.7858V14.0718H25.5322V14.1243H25.6324V14.3779H25.6793ZM26.1715 14.3779V14.0718H26.0948L26.0053 14.2904L25.9158 14.0718H25.8391V14.3779H25.8945V14.1461L25.9776 14.3451H26.0352L26.1183 14.1461V14.3779H26.1715Z" fill="#F79E1B"/>
<path d="M26.4124 9.49995C26.4124 10.9769 26.0073 12.4241 25.2435 13.676C24.4797 14.928 23.388 15.9341 22.0932 16.5796C20.7983 17.225 19.3526 17.4836 17.9213 17.3259C16.4899 17.1681 15.1307 16.6004 13.999 15.6875C14.9125 14.951 15.6509 14.0113 16.1587 12.9392C16.6665 11.8672 16.9304 10.6908 16.9304 9.49886C16.9304 8.30692 16.6665 7.13055 16.1587 6.05849C15.6509 4.98644 14.9125 4.04671 13.999 3.3102C15.1307 2.39735 16.4899 1.8296 17.9213 1.67186C19.3526 1.51411 20.7983 1.77273 22.0932 2.41816C23.388 3.06359 24.4797 4.06977 25.2435 5.3217C26.0073 6.57364 26.4124 8.0208 26.4124 9.49777V9.49995Z" fill="#F79E1B"/>
</g>
<defs>
<clipPath id="clip0_29_109">
<rect width="28" height="19" fill="white"/>
</clipPath>
</defs>
</svg>
