<svg width="20" height="20" viewBox="0 0 20 20" fill="none" xmlns="http://www.w3.org/2000/svg">
<rect width="20" height="19.7949" fill="#55ACE3"/>
<path d="M15.3 7.3736C14.95 7.52206 14.55 7.62104 14.15 7.67053C14.55 7.42309 14.9 7.0272 15.05 6.58181C14.65 6.82925 14.25 6.97771 13.75 7.07668C13.4 6.68079 12.85 6.43335 12.3 6.43335C11.2 6.43335 10.3 7.32412 10.3 8.41284C10.3 8.5613 10.3 8.70976 10.35 8.85822C8.7 8.75924 7.2 7.96745 6.2 6.77976C6.05 7.07668 5.95 7.42309 5.95 7.7695C5.95 8.46232 6.3 9.05617 6.85 9.40258C6.5 9.40258 6.2 9.30361 5.95 9.15514C5.95 10.0954 6.65 10.9367 7.55 11.0851C7.4 11.1346 7.2 11.1346 7 11.1346C6.85 11.1346 6.75 11.1346 6.6 11.0851C6.85 11.8769 7.6 12.4708 8.5 12.4708C7.8 13.0151 6.95 13.3121 6 13.3121C5.85 13.3121 5.7 13.3121 5.5 13.2626C6.4 13.8069 7.45 14.1534 8.6 14.1534C12.3 14.1534 14.3 11.1346 14.3 8.51181V8.26437C14.7 8.11591 15.05 7.7695 15.3 7.3736Z" fill="white"/>
</svg>
