<svg width="50" height="41" viewBox="0 0 50 41" fill="none" xmlns="http://www.w3.org/2000/svg">
<path d="M18.7948 25.6896L20.9332 15.3997H24.3536L22.2136 25.6896H18.7948ZM34.5711 15.6215C33.8936 15.413 32.8317 15.1893 31.5057 15.1893C28.1258 15.1893 25.7452 16.585 25.7248 18.5852C25.7058 20.0638 27.4245 20.8886 28.7219 21.3808C30.0533 21.8853 30.5008 22.2069 30.4944 22.6572C30.4859 23.347 29.4312 23.662 28.448 23.662C27.0791 23.662 26.3518 23.506 25.2285 23.122L24.7876 22.9585L24.3076 25.2619C25.1066 25.5493 26.5838 25.798 28.1178 25.811C31.7133 25.811 34.0474 24.4313 34.0739 22.2952C34.0867 21.1246 33.1755 20.2339 31.2021 19.4994C30.0066 19.0234 29.2744 18.7058 29.2821 18.2238C29.2821 17.796 29.9019 17.3387 31.2411 17.3387C32.3594 17.3244 33.1698 17.5244 33.8011 17.7329L34.1076 17.8517L34.5711 15.6215ZM43.373 15.3995H40.7301C39.9114 15.3995 39.2985 15.5828 38.9391 16.2529L33.8592 25.6829H37.451C37.451 25.6829 38.0381 24.415 38.1709 24.1365C38.5634 24.1365 42.0526 24.1409 42.5514 24.1409C42.6537 24.5012 42.9676 25.6829 42.9676 25.6829H46.1414L43.373 15.3992V15.3995ZM39.1796 22.0442C39.4626 21.4513 40.5424 19.1676 40.5424 19.1676C40.5223 19.195 40.8233 18.5719 40.9959 18.1855L41.2271 19.0727C41.2271 19.0727 41.882 21.529 42.0189 22.044H39.1796V22.0442ZM15.8912 15.3995L12.5425 22.4168L12.1858 20.9908C11.5623 19.3469 9.62008 17.5659 7.44873 16.6743L10.5107 25.6732L14.1296 25.6699L19.5145 15.3994L15.8912 15.3994" fill="#0E4595"/>
<path d="M9.41805 15.3992H3.9026L3.85889 15.6133C8.14985 16.465 10.989 18.5234 12.1679 20.9969L10.9686 16.2682C10.7616 15.6166 10.1611 15.4221 9.41818 15.3994" fill="#F2AE14"/>
</svg>
