<svg width="20" height="20" viewBox="0 0 20 20" fill="none" xmlns="http://www.w3.org/2000/svg">
<rect width="20" height="19.7949" fill="#F40000"/>
<path fill-rule="evenodd" clip-rule="evenodd" d="M5.63124 13.3897C5.43511 13.3322 5.25616 13.2301 5.10948 13.0918C4.9628 12.9535 4.8527 12.7831 4.78847 12.5951C4.42146 11.6233 4.31272 7.56509 5.01956 6.76396C5.25481 6.50335 5.58695 6.3429 5.94389 6.31743C7.84012 6.12043 13.6987 6.1467 14.3716 6.3831C14.5608 6.44242 14.7337 6.54235 14.8773 6.6754C15.0209 6.80846 15.1315 6.97118 15.2008 7.15139C15.6018 8.15608 15.6154 11.8071 15.1464 12.7724C15.022 13.0237 14.8137 13.2272 14.5551 13.3503C13.8483 13.6917 6.56917 13.6852 5.63124 13.3897ZM8.64211 11.4854L12.0404 9.77803L8.64211 8.05758V11.4854Z" fill="white"/>
</svg>
